<svg width="16" height="16" viewBox="0 0 16 16" fill="none" xmlns="http://www.w3.org/2000/svg">
<path d="M1.84586 12.1647L1.84587 12.1647L1.84569 12.1619L1.49902 6.66192L1.49899 6.66144C1.48853 6.49799 1.49368 6.33631 1.51386 6.17804C1.49406 6.33617 1.48953 6.49752 1.50114 6.66031L1.84756 12.163C1.84758 12.1633 1.8476 12.1636 1.84761 12.1639C1.86321 12.4255 1.90124 12.6742 1.96442 12.9064C1.90186 12.6818 1.86134 12.4347 1.84586 12.1647ZM11.1136 3.54214C11.0834 3.50058 11.0557 3.4566 11.0309 3.41035L10.5472 2.4431C10.3839 2.11643 10.0942 1.84741 9.79505 1.66284C9.49579 1.47822 9.12537 1.34004 8.76001 1.34004H7.74001V1.33337H8.76668C9.0852 1.33337 9.45528 1.44837 9.79541 1.65866C10.1343 1.86819 10.4055 2.14889 10.553 2.4375L11.0316 3.40785L11.0353 3.4154L11.0393 3.42282C11.0615 3.46425 11.0863 3.5041 11.1136 3.54214ZM14.501 6.66196L14.1544 12.1683C14.1004 13.016 13.8196 13.6267 13.3937 14.0262C12.9679 14.4258 12.341 14.6667 11.4933 14.6667C12.2486 14.6667 12.9066 14.4733 13.3887 14.0189C13.8705 13.565 14.1038 12.9193 14.1523 12.1655L14.1524 12.1648L14.499 6.65812L14.4991 6.65677C14.5223 6.27227 14.4596 5.89361 14.3165 5.54543C14.4622 5.89332 14.526 6.27176 14.501 6.66144L14.501 6.66196ZM5.25001 2.83534L4.96792 3.39952C4.7709 3.77692 4.40002 4.00004 4.00001 4.00004C4.40573 4.00004 4.78347 3.76376 4.96684 3.39776C4.96697 3.3975 4.9671 3.39724 4.96723 3.39698L5.25001 2.83534Z" fill="#4459EC" stroke="#4459EC"/>
<path d="M9 5.83337H7C6.72667 5.83337 6.5 5.60671 6.5 5.33337C6.5 5.06004 6.72667 4.83337 7 4.83337H9C9.27333 4.83337 9.5 5.06004 9.5 5.33337C9.5 5.60671 9.27333 5.83337 9 5.83337Z" fill="#4459EC"/>
<path d="M7.99998 12.5C6.52665 12.5 5.33331 11.3066 5.33331 9.83329C5.33331 8.35996 6.52665 7.16663 7.99998 7.16663C9.47331 7.16663 10.6666 8.35996 10.6666 9.83329C10.6666 11.3066 9.47331 12.5 7.99998 12.5ZM7.99998 8.16663C7.07998 8.16663 6.33331 8.91329 6.33331 9.83329C6.33331 10.7533 7.07998 11.5 7.99998 11.5C8.91998 11.5 9.66665 10.7533 9.66665 9.83329C9.66665 8.91329 8.91998 8.16663 7.99998 8.16663Z" fill="#4459EC"/>
</svg>
