<svg width="56" height="56" viewBox="0 0 56 56" fill="none" xmlns="http://www.w3.org/2000/svg">
<path d="M50.7733 37.1468L35.84 10.2667C33.8333 6.65008 31.0567 4.66675 28 4.66675C24.9433 4.66675 22.1667 6.65008 20.16 10.2667L5.22668 37.1468C3.33668 40.5768 3.12668 43.8668 4.64334 46.4568C6.16001 49.0468 9.14668 50.4701 13.0667 50.4701H42.9333C46.8533 50.4701 49.84 49.0468 51.3567 46.4568C52.8733 43.8668 52.6633 40.5534 50.7733 37.1468ZM26.25 21.0001C26.25 20.0434 27.0433 19.2501 28 19.2501C28.9567 19.2501 29.75 20.0434 29.75 21.0001V32.6668C29.75 33.6234 28.9567 34.4168 28 34.4168C27.0433 34.4168 26.25 33.6234 26.25 32.6668V21.0001ZM29.6567 41.3234C29.54 41.4168 29.4233 41.5101 29.3067 41.6034C29.1667 41.6968 29.0267 41.7668 28.8867 41.8134C28.7467 41.8834 28.6067 41.9301 28.4433 41.9534C28.3033 41.9768 28.14 42.0001 28 42.0001C27.86 42.0001 27.6967 41.9768 27.5333 41.9534C27.3933 41.9301 27.2533 41.8834 27.1133 41.8134C26.9733 41.7668 26.8333 41.6968 26.6933 41.6034C26.5767 41.5101 26.46 41.4168 26.3433 41.3234C25.9233 40.8801 25.6667 40.2734 25.6667 39.6668C25.6667 39.0601 25.9233 38.4534 26.3433 38.0101C26.46 37.9168 26.5767 37.8234 26.6933 37.7301C26.8333 37.6368 26.9733 37.5668 27.1133 37.5201C27.2533 37.4501 27.3933 37.4034 27.5333 37.3801C27.8367 37.3101 28.1633 37.3101 28.4433 37.3801C28.6067 37.4034 28.7467 37.4501 28.8867 37.5201C29.0267 37.5668 29.1667 37.6368 29.3067 37.7301C29.4233 37.8234 29.54 37.9168 29.6567 38.0101C30.0767 38.4534 30.3333 39.0601 30.3333 39.6668C30.3333 40.2734 30.0767 40.8801 29.6567 41.3234Z" fill="#FF4C49"/>
</svg>
