<svg width="20" height="20" viewBox="0 0 20 20" fill="none" xmlns="http://www.w3.org/2000/svg">
<path d="M12.9833 10.0001C12.9833 11.6501 11.6499 12.9834 9.99993 12.9834C8.34993 12.9834 7.0166 11.6501 7.0166 10.0001C7.0166 8.35006 8.34993 7.01672 9.99993 7.01672C11.6499 7.01672 12.9833 8.35006 12.9833 10.0001Z" stroke="#4459EC" stroke-width="1.5" stroke-linecap="round" stroke-linejoin="round"/>
<path d="M10.0001 16.8916C12.9418 16.8916 15.6834 15.1583 17.5918 12.1583C18.3418 10.9833 18.3418 9.00831 17.5918 7.83331C15.6834 4.83331 12.9418 3.09998 10.0001 3.09998C7.05845 3.09998 4.31678 4.83331 2.40845 7.83331C1.65845 9.00831 1.65845 10.9833 2.40845 12.1583C4.31678 15.1583 7.05845 16.8916 10.0001 16.8916Z" stroke="#4459EC" stroke-width="1.5" stroke-linecap="round" stroke-linejoin="round"/>
</svg>
