<svg width="25" height="24" viewBox="0 0 25 24" fill="none" xmlns="http://www.w3.org/2000/svg">
<path d="M12.1667 22.25C6.51289 22.25 1.91675 17.6539 1.91675 12C1.91675 6.34614 6.51289 1.75 12.1667 1.75C17.8206 1.75 22.4167 6.34614 22.4167 12C22.4167 17.6539 17.8206 22.25 12.1667 22.25ZM12.1667 2.25C6.79061 2.25 2.41675 6.62386 2.41675 12C2.41675 17.3761 6.79061 21.75 12.1667 21.75C17.5429 21.75 21.9167 17.3761 21.9167 12C21.9167 6.62386 17.5429 2.25 12.1667 2.25Z" fill="#292D32" stroke="#00B247"/>
<path d="M10.3931 14.1235L10.7467 14.4771L11.1002 14.1235L16.2402 8.98353C16.335 8.88879 16.4984 8.88879 16.5931 8.98353C16.6879 9.07827 16.6879 9.24168 16.5931 9.33642L10.9231 15.0064C10.8758 15.0537 10.8126 15.08 10.7467 15.08C10.6808 15.08 10.6175 15.0537 10.5702 15.0064L7.74024 12.1764C7.64551 12.0817 7.64551 11.9183 7.74024 11.8235C7.83498 11.7288 7.9984 11.7288 8.09314 11.8235L10.3931 14.1235Z" fill="#292D32" stroke="#00B247"/>
</svg>
