<svg width="25" height="25" viewBox="0 0 25 25" fill="none" xmlns="http://www.w3.org/2000/svg">
<path d="M12.25 3.5C12.4312 3.50001 12.6063 3.56564 12.7429 3.68477C12.8795 3.80389 12.9683 3.96845 12.993 4.148L13 4.25L13.001 11.5H20.254C20.444 11.5001 20.6269 11.5722 20.7658 11.702C20.9046 11.8317 20.989 12.0093 21.002 12.1989C21.0149 12.3885 20.9555 12.5759 20.8355 12.7233C20.7156 12.8707 20.5442 12.9671 20.356 12.993L20.254 13H13.001L13.003 20.25C13.0027 20.4399 12.9303 20.6227 12.8005 20.7613C12.6707 20.9 12.4931 20.9842 12.3036 20.9971C12.1141 21.0099 11.9268 20.9503 11.7795 20.8304C11.6322 20.7105 11.5359 20.5392 11.51 20.351L11.503 20.249L11.501 13H4.25197C4.06195 12.9999 3.87903 12.9278 3.74018 12.798C3.60133 12.6683 3.51689 12.4907 3.50394 12.3011C3.49099 12.1115 3.55048 11.9241 3.6704 11.7767C3.79032 11.6293 3.96172 11.5329 4.14997 11.507L4.25197 11.5H11.502L11.5 4.25C11.5 4.05109 11.579 3.86032 11.7196 3.71967C11.8603 3.57902 12.0511 3.5 12.25 3.5Z" fill="white"/>
</svg>
