<svg width="24" height="24" viewBox="0 0 24 24" fill="none" xmlns="http://www.w3.org/2000/svg">
<path d="M8.00007 21.9998H16.0001C20.0201 21.9998 20.7401 20.3898 20.9501 18.4298L21.7001 10.4298C21.9701 7.98976 21.2701 5.99976 17.0001 5.99976H7.00007C2.73007 5.99976 2.03007 7.98976 2.30007 10.4298L3.05007 18.4298C3.26007 20.3898 3.98007 21.9998 8.00007 21.9998Z" fill="#4459EC" stroke="#4459EC" stroke-width="1.5" stroke-miterlimit="10" stroke-linecap="round" stroke-linejoin="round"/>
<path d="M8 5.99976V5.19976C8 3.42976 8 1.99976 11.2 1.99976H12.8C16 1.99976 16 3.42976 16 5.19976V5.99976" stroke="#4459EC" stroke-width="1.5" stroke-miterlimit="10" stroke-linecap="round" stroke-linejoin="round"/>
<path d="M14 12.9998V13.9998C14 14.0098 14 14.0098 14 14.0198C14 15.1098 13.99 15.9998 12 15.9998C10.02 15.9998 10 15.1198 10 14.0298V12.9998C10 11.9998 10 11.9998 11 11.9998H13C14 11.9998 14 11.9998 14 12.9998Z" stroke="#EBF0FE" stroke-width="1.5" stroke-miterlimit="10" stroke-linecap="round" stroke-linejoin="round"/>
<path d="M21.65 10.9998C19.34 12.6798 16.7 13.6798 14 14.0198" stroke="#EBF0FE" stroke-width="1.5" stroke-miterlimit="10" stroke-linecap="round" stroke-linejoin="round"/>
<path d="M2.62012 11.2698C4.87012 12.8098 7.41012 13.7398 10.0001 14.0298" stroke="#EBF0FE" stroke-width="1.5" stroke-miterlimit="10" stroke-linecap="round" stroke-linejoin="round"/>
</svg>
