<svg width="24" height="24" viewBox="0 0 24 24" fill="none" xmlns="http://www.w3.org/2000/svg">
<path d="M7.99983 21.9998H15.9998C20.0198 21.9998 20.7398 20.3898 20.9498 18.4298L21.6998 10.4298C21.9698 7.98976 21.2698 5.99976 16.9998 5.99976H6.99983C2.72983 5.99976 2.02983 7.98976 2.29983 10.4298L3.04983 18.4298C3.25983 20.3898 3.97983 21.9998 7.99983 21.9998Z" stroke="#292D32" stroke-width="1.5" stroke-miterlimit="10" stroke-linecap="round" stroke-linejoin="round"/>
<path d="M8 5.99976V5.19976C8 3.42976 8 1.99976 11.2 1.99976H12.8C16 1.99976 16 3.42976 16 5.19976V5.99976" stroke="#292D32" stroke-width="1.5" stroke-miterlimit="10" stroke-linecap="round" stroke-linejoin="round"/>
<path d="M14 12.9998V13.9998C14 14.0098 14 14.0098 14 14.0198C14 15.1098 13.99 15.9998 12 15.9998C10.02 15.9998 10 15.1198 10 14.0298V12.9998C10 11.9998 10 11.9998 11 11.9998H13C14 11.9998 14 11.9998 14 12.9998Z" stroke="#292D32" stroke-width="1.5" stroke-miterlimit="10" stroke-linecap="round" stroke-linejoin="round"/>
<path d="M21.65 10.9998C19.34 12.6798 16.7 13.6798 14 14.0198" stroke="#292D32" stroke-width="1.5" stroke-miterlimit="10" stroke-linecap="round" stroke-linejoin="round"/>
<path d="M2.62012 11.2698C4.87012 12.8098 7.41012 13.7398 10.0001 14.0298" stroke="#292D32" stroke-width="1.5" stroke-miterlimit="10" stroke-linecap="round" stroke-linejoin="round"/>
</svg>
