<svg width="24" height="24" viewBox="0 0 24 24" fill="none" xmlns="http://www.w3.org/2000/svg">
<path d="M20.0402 6.81982L14.2802 2.78982C12.7102 1.68982 10.3002 1.74982 8.79023 2.91982L3.78023 6.82982C2.78023 7.60982 1.99023 9.20982 1.99023 10.4698V17.3698C1.99023 19.9198 4.06023 21.9998 6.61023 21.9998H17.3902C19.9402 21.9998 22.0102 19.9298 22.0102 17.3798V10.5998C22.0102 9.24982 21.1402 7.58982 20.0402 6.81982ZM12.7502 17.9998C12.7502 18.4098 12.4102 18.7498 12.0002 18.7498C11.5902 18.7498 11.2502 18.4098 11.2502 17.9998V14.9998C11.2502 14.5898 11.5902 14.2498 12.0002 14.2498C12.4102 14.2498 12.7502 14.5898 12.7502 14.9998V17.9998Z" fill="#4459EC"/>
</svg>
