<svg width="140" height="43" viewBox="0 0 140 43" fill="none" xmlns="http://www.w3.org/2000/svg">
<path d="M39.6411 21.0596L41.0068 17.9958C42.4717 19.076 44.6566 19.829 46.7417 19.829C49.1252 19.829 50.0935 19.0255 50.0935 17.9459C50.0935 14.6562 39.9885 16.9162 39.9885 10.3872C39.9885 7.39863 42.3719 4.91296 47.3129 4.91296C49.4977 4.91296 51.7325 5.44022 53.3461 6.4699L52.1045 9.55844C50.4906 8.62946 48.8277 8.17746 47.2881 8.17746C44.9046 8.17746 43.9861 9.08147 43.9861 10.1864C43.9861 13.4258 54.0908 11.1907 54.0908 17.6445C54.0908 20.5824 51.6825 23.0935 46.7169 23.0935C43.9609 23.0935 41.1801 22.265 39.6411 21.0596Z" fill="#303030"/>
<path d="M69.88 16.0374C69.88 20.2811 66.9753 22.9931 63.2266 22.9931C61.563 22.9931 60.1973 22.4659 59.2037 21.3608V27.6636H55.3311V9.28246H59.0303V10.8393C59.9987 9.65897 61.4393 9.08154 63.2266 9.08154C66.9753 9.08154 69.88 11.7936 69.88 16.0374ZM65.9574 16.0374C65.9574 13.7019 64.4925 12.2957 62.5561 12.2957C60.6198 12.2957 59.1543 13.7019 59.1543 16.0374C59.1543 18.373 60.6193 19.7789 62.5561 19.7789C64.4929 19.7789 65.9574 18.3726 65.9574 16.0374Z" fill="#303030"/>
<path d="M71.2188 4.15979H75.0924V22.7923H71.2188V4.15979Z" fill="#303030"/>
<path d="M76.9785 5.21444C76.9785 3.98409 77.9469 3.03003 79.3875 3.03003C80.8282 3.03003 81.7958 3.93404 81.7958 5.13931C81.7958 6.44515 80.8273 7.39957 79.3875 7.39957C77.9477 7.39957 76.9785 6.44527 76.9785 5.21444ZM77.4503 9.28248H81.3241V22.7923H77.4503V9.28248Z" fill="#303030"/>
<path d="M92.2968 22.1392C91.5023 22.7168 90.3352 22.993 89.1435 22.993C85.9907 22.993 84.1531 21.3607 84.1531 18.1467V12.5971H82.0928V9.58365H84.1531V6.29419H88.0264V9.58365H91.3535V12.5971H88.0264V18.0962C88.0264 19.2516 88.6474 19.8793 89.69 19.8793C90.2611 19.8793 90.8323 19.7033 91.2542 19.377L92.2968 22.1392Z" fill="#303030"/>
<path d="M101.557 22.1392C100.763 22.7168 99.5957 22.993 98.4039 22.993C95.2506 22.993 93.4136 21.3607 93.4136 18.1467V12.5971H91.3525V9.58365H93.4135V6.29419H97.2866V9.58365H100.613V12.5971H97.2866V18.0962C97.2866 19.2516 97.9072 19.8793 98.9502 19.8793C99.5209 19.8793 100.092 19.7033 100.514 19.377L101.557 22.1392Z" fill="#303030"/>
<path d="M102.028 5.21444C102.028 3.98409 102.996 3.03003 104.436 3.03003C105.876 3.03003 106.844 3.93404 106.844 5.13931C106.844 6.44515 105.876 7.39957 104.436 7.39957C102.996 7.39957 102.028 6.44527 102.028 5.21444ZM102.5 9.28248H106.372V22.7923H102.5V9.28248Z" fill="#303030"/>
<path d="M122.386 15.0579V22.7923H118.513V15.6607C118.513 13.4763 117.52 12.4715 115.807 12.4715C113.945 12.4715 112.604 13.6268 112.604 16.1127V22.7923H108.731V9.28246H112.43V10.8644C113.473 9.70938 115.037 9.08154 116.85 9.08154C120.003 9.08154 122.386 10.9397 122.386 15.0579Z" fill="#303030"/>
<path d="M138.573 9.28245V20.5322C138.573 25.5544 135.891 27.8647 131.075 27.8647C128.542 27.8647 126.084 27.2367 124.52 26.0064L126.059 23.194C127.202 24.123 129.063 24.7256 130.777 24.7256C133.508 24.7256 134.699 23.4703 134.699 21.0345V20.457C133.682 21.5869 132.217 22.1393 130.479 22.1393C126.78 22.1393 123.8 19.553 123.8 15.61C123.8 11.6671 126.78 9.08081 130.479 9.08081C132.341 9.08081 133.88 9.70865 134.898 11.0145V9.28245H138.573ZM134.749 15.6104C134.749 13.6268 133.284 12.2957 131.248 12.2957C129.213 12.2957 127.723 13.6268 127.723 15.6104C127.723 17.594 129.213 18.9251 131.248 18.9251C133.284 18.9251 134.749 17.5941 134.749 15.6104Z" fill="#303030"/>
<path d="M76.957 26.0569H78.8182V39.2354H76.957V26.0569Z" fill="#303030"/>
<path d="M97.9156 33.4929V39.2354H96.1289V33.7001C96.1289 31.7421 95.1984 30.7821 93.579 30.7821C91.7919 30.7821 90.6192 31.9304 90.6192 34.0947V39.2354H88.832V33.7001C88.832 31.7421 87.9017 30.7821 86.2822 30.7821C84.4956 30.7821 83.3228 31.9304 83.3228 34.0947V39.2354H81.5356V29.2572H83.2482V30.7444C83.9558 29.7277 85.1655 29.163 86.6548 29.163C88.1619 29.163 89.4279 29.7654 90.0794 31.008C90.824 29.8783 92.2011 29.163 93.8768 29.163C96.2781 29.163 97.9156 30.5562 97.9156 33.4929Z" fill="#303030"/>
<path d="M108.097 33.2102V39.2354H106.403V37.917C105.807 38.8206 104.709 39.3477 103.164 39.3477C100.931 39.3477 99.5156 38.1429 99.5156 36.4109C99.5156 34.8107 100.54 33.4929 103.48 33.4929H106.31V33.1353C106.31 31.6105 105.435 30.7257 103.667 30.7257C102.494 30.7257 101.303 31.1396 100.54 31.7985L99.795 30.443C100.818 29.6148 102.289 29.163 103.872 29.163C106.57 29.163 108.097 30.4808 108.097 33.2102ZM106.31 36.1846V34.7919H103.555C101.787 34.7919 101.284 35.488 101.284 36.3356C101.284 37.3334 102.103 37.9547 103.462 37.9547C104.802 37.9547 105.863 37.3334 106.31 36.185V36.1846Z" fill="#303030"/>
<path d="M119.972 29.2572V37.8791C119.972 41.3996 118.204 42.9998 114.853 42.9998C113.048 42.9998 111.224 42.4913 110.144 41.5126L111 40.1193C111.912 40.9102 113.345 41.4185 114.798 41.4185C117.124 41.4185 118.186 40.3263 118.186 38.0674V37.2766C117.329 38.312 116.044 38.8203 114.63 38.8203C111.782 38.8203 109.623 36.8626 109.623 33.9821C109.623 31.1016 111.782 29.1627 114.63 29.1627C116.101 29.1627 117.441 29.7087 118.278 30.8005V29.2572H119.972ZM118.222 33.9823C118.222 32.0434 116.807 30.7444 114.834 30.7444C112.843 30.7444 111.429 32.0434 111.429 33.9823C111.429 35.9027 112.843 37.2394 114.834 37.2394C116.807 37.2394 118.222 35.9026 118.222 33.9823Z" fill="#303030"/>
<path d="M131.326 34.8484H123.322C123.545 36.5992 124.941 37.7664 126.896 37.7664C128.05 37.7664 129.018 37.3711 129.744 36.5615L130.731 37.7286C129.837 38.783 128.479 39.3477 126.841 39.3477C123.658 39.3477 121.536 37.2204 121.536 34.246C121.536 31.2904 123.639 29.163 126.487 29.163C129.336 29.163 131.364 31.2338 131.364 34.3024C131.363 34.4531 131.345 34.679 131.326 34.8484ZM123.322 33.5494H129.651C129.465 31.874 128.217 30.6879 126.487 30.6879C124.774 30.6879 123.508 31.8551 123.322 33.5494Z" fill="#303030"/>
<path d="M131.661 38.1806L132.406 36.7499C133.243 37.3523 134.583 37.7854 135.868 37.7854C137.524 37.7854 138.213 37.2768 138.213 36.4298C138.213 34.1895 131.978 36.1285 131.978 32.1563C131.978 30.368 133.559 29.163 136.091 29.163C137.376 29.163 138.827 29.5018 139.684 30.0667L138.92 31.4975C138.027 30.9137 137.041 30.7067 136.072 30.7067C134.508 30.7067 133.745 31.2904 133.745 32.081C133.745 34.4341 139.999 32.5139 139.999 36.392C139.999 38.1993 138.362 39.3477 135.737 39.3477C134.099 39.3477 132.48 38.8393 131.661 38.1806Z" fill="#303030"/>
<path d="M29.8596 18.4268H14.017L7.52148 27.8212H23.8922L29.8596 18.4268Z" fill="url(#paint0_linear_3767_1006)"/>
<path d="M32.2663 14.0915H16.4237L9.92822 4.69714H26.2989L32.2663 14.0915Z" fill="url(#paint1_linear_3767_1006)"/>
<path d="M22.3381 23.4858H6.49549L0 14.0916H16.3707L22.3381 23.4858Z" fill="url(#paint2_linear_3767_1006)"/>
<path d="M23.6281 0H7.78553L1.29004 9.39441H17.6607L23.6281 0Z" fill="url(#paint3_linear_3767_1006)"/>
<defs>
<linearGradient id="paint0_linear_3767_1006" x1="15.0751" y1="17.5129" x2="24.2339" y2="31.4085" gradientUnits="userSpaceOnUse">
<stop stop-color="#5035C4"/>
<stop offset="1" stop-color="#00CAF8"/>
</linearGradient>
<linearGradient id="paint1_linear_3767_1006" x1="34.8249" y1="39.4992" x2="2.20448" y2="-30.434" gradientUnits="userSpaceOnUse">
<stop stop-color="#8F39D4"/>
<stop offset="0.48" stop-color="#E32B6D"/>
<stop offset="1" stop-color="#FF963B"/>
</linearGradient>
<linearGradient id="paint2_linear_3767_1006" x1="15.6283" y1="27.2748" x2="-8.41656" y2="-17.4575" gradientUnits="userSpaceOnUse">
<stop stop-color="#8F39D4"/>
<stop offset="0.48" stop-color="#E32B6D"/>
<stop offset="1" stop-color="#FF963B"/>
</linearGradient>
<linearGradient id="paint3_linear_3767_1006" x1="28.0285" y1="33.9286" x2="9.68045" y2="0.252578" gradientUnits="userSpaceOnUse">
<stop stop-color="#8F39D4"/>
<stop offset="0.48" stop-color="#E32B6D"/>
<stop offset="1" stop-color="#FF963B"/>
</linearGradient>
</defs>
</svg>
