<svg width="24" height="24" viewBox="0 0 24 24" fill="none" xmlns="http://www.w3.org/2000/svg">
<path d="M20.1 9.21981C18.29 9.21981 17.55 7.93981 18.45 6.36981C18.97 5.45981 18.66 4.29981 17.75 3.77981L16.02 2.78981C15.23 2.31981 14.21 2.59981 13.74 3.38981L13.63 3.57981C12.73 5.14981 11.25 5.14981 10.34 3.57981L10.23 3.38981C9.78 2.59981 8.76 2.31981 7.97 2.78981L6.24 3.77981C5.33 4.29981 5.02 5.46981 5.54 6.37981C6.45 7.93981 5.71 9.21981 3.9 9.21981C2.86 9.21981 2 10.0698 2 11.1198V12.8798C2 13.9198 2.85 14.7798 3.9 14.7798C5.71 14.7798 6.45 16.0598 5.54 17.6298C5.02 18.5398 5.33 19.6998 6.24 20.2198L7.97 21.2098C8.76 21.6798 9.78 21.3998 10.25 20.6098L10.36 20.4198C11.26 18.8498 12.74 18.8498 13.65 20.4198L13.76 20.6098C14.23 21.3998 15.25 21.6798 16.04 21.2098L17.77 20.2198C18.68 19.6998 18.99 18.5298 18.47 17.6298C17.56 16.0598 18.3 14.7798 20.11 14.7798C21.15 14.7798 22.01 13.9298 22.01 12.8798V11.1198C22 10.0798 21.15 9.21981 20.1 9.21981ZM12 15.2498C10.21 15.2498 8.75 13.7898 8.75 11.9998C8.75 10.2098 10.21 8.74981 12 8.74981C13.79 8.74981 15.25 10.2098 15.25 11.9998C15.25 13.7898 13.79 15.2498 12 15.2498Z" fill="#4459EC"/>
</svg>
